<svg width="51" height="58" viewBox="0 0 51 58" fill="none" xmlns="http://www.w3.org/2000/svg">
<path d="M49.3801 21.6616L29.498 1.77944C27.4426 -0.27603 24.0979 -0.276147 22.0423 1.77944C20.1945 3.62713 20.0353 6.44513 21.3999 8.45735L21.3722 8.59575C19.9388 15.7635 16.4491 22.2843 11.2801 27.4532L2.16066 36.5726C0.100269 38.6331 0.0999181 41.9678 2.16066 44.0283L7.13104 48.9987C9.19131 51.059 12.5262 51.0592 14.5867 48.9987L15.8294 47.756L24.5277 56.4543C26.5881 58.5149 29.9228 58.515 31.9833 56.4543C34.0389 54.3989 34.0389 51.0542 31.9833 48.9988L28.2555 45.2709L29.4981 44.0283C31.5585 41.968 31.5587 38.6333 29.4981 36.5727L28.6537 35.7281C32.8078 32.8197 37.5257 30.7948 42.5639 29.7871L42.7041 29.7591C44.761 31.1479 47.5725 30.9246 49.3801 29.117H49.3802C51.4354 27.0617 51.4354 23.7171 49.3801 21.6616ZM12.1015 46.5135C11.4148 47.2001 10.3029 47.2002 9.61623 46.5133L4.64585 41.543C3.95901 40.856 3.95901 39.7446 4.64585 39.0578L13.3441 30.3594L20.7998 37.8151C19.9487 38.6661 12.9735 45.6414 12.1015 46.5135ZM29.498 51.4838C30.1831 52.1689 30.1831 53.2838 29.498 53.969C28.8129 54.6541 27.6979 54.6541 27.0128 53.969L18.3145 45.2707L20.7998 42.7855L29.498 51.4838ZM23.285 40.3003C23.8132 39.772 24.604 38.9629 25.8521 37.8969L27.0128 39.0578C27.6996 39.7446 27.6996 40.856 27.0128 41.543L25.7701 42.7856L23.285 40.3003ZM23.3596 35.4047L15.7544 27.7995C19.83 23.0933 22.7487 17.5381 24.3102 11.5029L39.6561 26.8489C33.621 28.4103 28.0658 31.3289 23.3596 35.4047ZM46.8946 26.6317C46.2077 27.3184 45.0962 27.3184 44.4094 26.6317L24.5275 6.74982C23.8407 6.06287 23.8407 4.95146 24.5275 4.26463C25.2143 3.57779 26.326 3.57779 27.0128 4.26463L46.8946 24.1464C47.5796 24.8316 47.5796 25.9464 46.8946 26.6317Z" fill="#282828"/>
</svg>
