<svg width="44" height="40" viewBox="0 0 44 40" fill="none" xmlns="http://www.w3.org/2000/svg">
<path d="M0 0.530273V39.4691H44V0.530273H0ZM29.1673 3.1084L24.3164 8.96126H2.57812V3.1084H29.1673ZM41.4219 36.8909H2.57812V11.5394H25.5281L32.5158 3.1084H41.4219V36.8909Z" fill="#282828"/>
<path d="M5.52881 4.74951H8.10693V7.34199H5.52881V4.74951Z" fill="#282828"/>
<path d="M10.2837 4.74951H12.8618V7.34199H10.2837V4.74951Z" fill="#282828"/>
<path d="M15.0391 4.74951H17.6172V7.34199H15.0391V4.74951Z" fill="#282828"/>
<path d="M17.5825 25.9727C17.5825 27.181 16.5995 28.1641 15.3911 28.1641C14.1827 28.1641 13.1997 27.181 13.1997 25.9727V17.9375H10.6216V25.9727C10.6216 28.6026 12.7612 30.7422 15.3911 30.7422C18.0211 30.7422 20.1606 28.6026 20.1606 25.9727V17.9375H17.5825V25.9727Z" fill="#282828"/>
<path d="M29.8962 17.8945L27.7919 21.6843L25.6877 17.8945H22.7388L26.3175 24.3398L22.7388 30.7852H25.6877L27.7919 26.9954L29.8962 30.7852H32.8452L29.2664 24.3398L32.8452 17.8945H29.8962Z" fill="#282828"/>
</svg>
